<?xml version="1.0" standalone="no"?>
<!DOCTYPE svg PUBLIC "-//W3C//DTD SVG 1.1//EN" "http://www.w3.org/Graphics/SVG/1.1/DTD/svg11.dtd" >
<svg>
<metadata>
Created by FontForge 20120731 at Mon Aug 13 03:54:41 2018
 By www-data
Copyright \(c\) 1998 Elsner+Flake. All Rights Reserved.
</metadata>
<defs>
<font id="MicrogrammaEF-MediumExtend" horiz-adv-x="656" >
  <font-face 
    font-family="MicrogrammaEF"
    font-weight="500"
    font-stretch="normal"
    units-per-em="1000"
    panose-1="0 0 0 0 0 0 0 0 0 0"
    ascent="800"
    descent="-200"
    x-height="463"
    cap-height="667"
    bbox="-33 -206 1444 975"
    underline-thickness="0"
    underline-position="0"
    stemh="78"
    stemv="75"
    unicode-range="U+0020-F8FF"
  />
<missing-glyph horiz-adv-x="333" 
 />
    <glyph glyph-name=".notdef" horiz-adv-x="333" 
 />
    <glyph glyph-name="space" unicode=" " horiz-adv-x="250" 
 />
    <glyph glyph-name="exclam" unicode="!" horiz-adv-x="235" 
d="M157 189h-79v478h79v-478zM172 0h-109v113h109v-113z" />
    <glyph glyph-name="dollar" unicode="$" horiz-adv-x="852" 
d="M825 186c0 -45 -8 -94 -39 -128c-18 -20 -40 -31 -65 -39c-79 -24 -180 -19 -262 -19v-76h-61v76c-57 0 -113 3 -170 7c-62 4 -124 9 -169 56c-39 40 -32 106 -32 157h86c0 -34 -6 -81 16 -108c22 -28 83 -30 115 -32c51 -3 103 -5 154 -5v222c-70 1 -182 4 -249 21
c-83 21 -116 79 -116 162c0 45 9 91 38 126c58 71 196 67 279 67c16 0 32 -1 48 -1v38h61v-39l33 -1c78 -2 222 0 280 -64c34 -38 37 -91 37 -140h-84c0 26 2 75 -17 95c-40 41 -199 37 -249 37v-222h12l147 -7c135 -6 207 -31 207 -183zM738 196c0 19 -1 41 -11 58
c-24 37 -106 37 -144 38c-41 2 -83 6 -124 4v-221h12l110 2c46 1 123 0 146 50c10 21 11 47 11 69zM398 377v224h-55c-54 0 -171 4 -206 -48c-14 -21 -16 -48 -16 -72c0 -28 3 -48 23 -68c39 -40 190 -36 240 -36h14z" />
    <glyph glyph-name="percent" unicode="%" horiz-adv-x="923" 
d="M890 154c0 -55 0 -132 -66 -148c-39 -9 -93 -8 -133 -8c-41 0 -100 0 -140 11c-14 4 -24 10 -34 20c-28 27 -24 98 -24 133v13c0 43 -5 107 26 141c32 35 128 30 171 30c30 0 59 0 89 -2c50 -3 95 -13 104 -71c5 -32 5 -66 6 -99c0 -7 1 -13 1 -20zM731 701l-479 -701
l-53 37l478 698zM430 539c0 -159 -40 -159 -186 -159c-40 0 -110 -1 -148 9c-16 4 -27 10 -39 22c-28 28 -24 103 -24 140c0 47 -6 104 24 144c29 39 131 34 173 34c184 0 200 -8 200 -190zM818 178c0 19 1 72 -14 87s-89 14 -109 14h-55c-15 0 -38 0 -52 -6
c-30 -13 -24 -82 -24 -108c0 -72 -4 -100 73 -100h61c113 0 120 -6 120 113zM359 558c0 18 0 75 -13 89c-8 8 -17 9 -27 11c-27 4 -55 4 -82 4h-55c-20 0 -49 1 -64 -14c-17 -16 -15 -80 -15 -101c0 -82 -1 -98 84 -100c20 0 40 -1 60 -1c106 0 112 0 112 112z" />
    <glyph glyph-name="ampersand" unicode="&#x26;" horiz-adv-x="884" 
d="M940 73l-24 -74l-134 71c-36 -41 -54 -54 -108 -62c-86 -13 -181 -12 -268 -12c-77 0 -183 -2 -258 18c-100 27 -121 112 -121 205c0 53 11 103 52 140c32 29 65 32 106 38c-48 28 -68 70 -68 125c0 34 8 69 31 95c48 54 172 51 237 51h47c72 0 156 -2 225 -24
c40 -12 72 -37 84 -78c10 -34 8 -71 8 -106h-85c-1 27 2 78 -17 99c-8 9 -16 13 -27 16c-46 14 -151 14 -200 14c-38 0 -135 3 -171 -8c-30 -9 -44 -32 -44 -63c0 -53 33 -72 74 -96c17 -9 33 -19 50 -28l399 -212c3 48 3 95 3 143h86v-42c0 -47 -3 -94 -9 -141zM702 113
l-452 236c-103 -6 -136 -36 -136 -140c0 -33 4 -76 29 -100c30 -29 115 -29 153 -30c57 -1 114 -3 171 -3c58 0 119 0 177 9c23 4 44 8 58 28z" />
    <glyph glyph-name="quoteright" unicode="&#x2019;" horiz-adv-x="194" 
d="M157 555c0 -78 -12 -124 -103 -124h-17v62h17c33 0 32 39 32 62h-38v112h109v-112z" />
    <glyph glyph-name="parenleft" unicode="(" horiz-adv-x="326" 
d="M292 -9c-25 3 -53 1 -79 3c-48 4 -85 9 -119 45c-40 42 -44 100 -46 156c-2 30 -2 61 -2 92c0 56 2 112 3 168c1 84 7 177 102 206c46 14 93 14 141 15v-77c-129 0 -157 3 -159 -140c-1 -51 -3 -102 -3 -153c0 -36 1 -73 3 -109c1 -31 3 -78 25 -103
c26 -30 98 -24 134 -24v-79z" />
    <glyph glyph-name="parenright" unicode=")" horiz-adv-x="325" 
d="M279 275c0 -133 13 -274 -164 -282c-23 -1 -45 -2 -68 -2c-5 0 -9 0 -14 1v77c10 -1 20 -1 30 -1c31 0 77 0 102 21c29 25 28 100 29 135c1 32 1 63 1 95c0 52 -1 104 -3 156c-1 30 -3 74 -24 98c-26 29 -98 25 -135 25v78c47 -2 94 -2 140 -16c25 -8 44 -21 62 -39
c40 -41 42 -106 42 -160c1 -62 2 -124 2 -186z" />
    <glyph glyph-name="asterisk" unicode="*" horiz-adv-x="433" 
d="M336 588l-76 -47l73 -41l-20 -36l-74 40v-86h-42l-1 88l-74 -44l-21 37l74 43l-78 45l21 36l78 -45l1 89h42v-88l76 44z" />
    <glyph glyph-name="plus" unicode="+" horiz-adv-x="846" 
d="M757 290h-290v-290h-87v290h-291v87h290v290h87v-290h291v-87z" />
    <glyph glyph-name="comma" unicode="," horiz-adv-x="184" 
d="M150 0c0 -26 0 -53 -9 -77c-14 -37 -59 -47 -94 -47h-17v62h17c33 0 32 39 32 62h-37v112h108v-112z" />
    <glyph glyph-name="hyphen" unicode="-" horiz-adv-x="313" 
d="M313 193h-313v87h313v-87z" />
    <glyph glyph-name="period" unicode="." horiz-adv-x="189" 
d="M149 0h-109v113h109v-113z" />
    <glyph glyph-name="slash" unicode="/" horiz-adv-x="655" 
d="M668 781l-608 -909h-93l608 909h93z" />
    <glyph glyph-name="zero" unicode="0" horiz-adv-x="846" 
d="M806 350c0 -70 -1 -143 -14 -212c-15 -77 -50 -112 -128 -126s-173 -14 -253 -14c-47 0 -95 1 -142 4c-112 7 -199 22 -220 148c-10 59 -9 123 -9 183c0 36 1 72 3 108c3 59 8 126 49 172c55 62 233 56 308 56s204 0 276 -16c63 -14 104 -52 118 -116
c13 -59 12 -127 12 -187zM722 318c0 37 -1 75 -3 112c-7 134 -21 151 -156 157c-53 2 -106 4 -159 4c-45 0 -210 4 -244 -32c-14 -15 -19 -33 -23 -53c-12 -58 -12 -124 -12 -183c0 -43 -1 -176 31 -209c37 -38 205 -37 254 -37c46 0 93 2 139 4c36 2 110 4 138 31
c35 34 35 161 35 206z" />
    <glyph glyph-name="one" unicode="1" horiz-adv-x="511" 
d="M406 0h-88v583h-32l-214 -201l-53 59l236 226h151v-667z" />
    <glyph glyph-name="two" unicode="2" horiz-adv-x="792" 
d="M769 0h-737c-1 24 -2 48 -2 72c0 60 0 130 42 178c18 21 43 35 69 43c36 12 75 16 112 19c52 4 103 7 155 10c62 4 129 4 190 17c66 14 84 51 84 116c0 29 -5 71 -24 95c-11 14 -23 20 -40 25c-55 16 -159 17 -217 17c-52 0 -208 -1 -246 -27c-13 -9 -19 -17 -25 -31
c-12 -26 -10 -93 -11 -123h-84c0 50 -3 105 15 152c16 43 56 76 100 88c62 16 142 17 206 17c56 0 113 -3 169 -5c71 -2 149 -2 202 -57c35 -36 37 -100 37 -147c0 -28 -2 -58 -9 -85c-14 -52 -58 -89 -109 -103c-48 -13 -100 -17 -149 -21c-77 -6 -153 -10 -229 -14
c-38 -2 -95 -5 -124 -33c-31 -30 -26 -90 -26 -130h651v-73z" />
    <glyph glyph-name="three" unicode="3" horiz-adv-x="813" 
d="M773 177c0 -78 -24 -148 -108 -167c-69 -16 -182 -13 -253 -13c-57 0 -114 1 -171 3c-34 1 -71 2 -105 9c-95 20 -109 92 -109 178v39h88v-27c0 -23 0 -59 9 -80c15 -37 62 -39 96 -41c19 -1 39 -2 58 -2c53 -1 106 -3 158 -3c58 0 117 2 174 8c75 8 74 53 74 119
c0 33 0 65 -30 85c-11 7 -17 10 -30 13c-26 6 -56 5 -83 7c-77 5 -156 2 -233 2v73h213c34 0 71 0 105 9c45 12 50 53 50 94c0 24 -4 65 -22 82c-11 11 -27 15 -42 18c-59 12 -147 10 -208 10c-67 0 -164 1 -229 -13c-54 -12 -52 -49 -52 -97v-37h-90v33c0 33 3 66 12 98
c12 44 49 72 92 81c67 14 196 12 266 12c76 0 189 3 263 -16c25 -7 45 -18 64 -36c35 -32 35 -86 35 -130c0 -34 -2 -84 -26 -111c-15 -17 -36 -25 -56 -33c90 -23 90 -85 90 -167z" />
    <glyph glyph-name="four" unicode="4" horiz-adv-x="799" 
d="M786 140h-120v-140h-89v140h-564v156l496 371h157v-449h120v-78zM577 218v375h-38l-442 -337v-38h480z" />
    <glyph glyph-name="five" unicode="5" horiz-adv-x="810" 
d="M780 224c0 -56 -4 -114 -37 -161c-42 -61 -128 -62 -195 -63c-50 -1 -99 -3 -149 -3c-47 0 -94 1 -141 2c-66 1 -138 -1 -186 51c-39 42 -37 103 -39 157h85c3 -32 -1 -71 21 -97c13 -15 29 -22 47 -26c56 -13 141 -12 199 -12c66 0 171 1 235 12c15 3 29 7 40 17
c33 27 33 97 33 136c0 56 -6 115 -69 132c-60 16 -179 13 -245 13c-52 0 -153 1 -202 -16c-27 -9 -36 -20 -40 -49h-89v350h710v-76h-621v-194c10 13 18 24 32 33c44 29 175 26 225 26c66 0 133 -1 199 -7c153 -14 187 -80 187 -225z" />
    <glyph glyph-name="six" unicode="6" horiz-adv-x="802" 
d="M772 210c0 -52 -8 -119 -47 -158c-47 -48 -148 -50 -210 -53c-43 -2 -87 -2 -130 -2c-62 0 -177 -3 -236 16c-25 8 -44 21 -62 39c-44 44 -45 110 -46 168c0 41 -1 81 -1 122c0 35 1 71 2 106c1 56 2 108 38 154c45 57 138 62 204 65c41 3 83 3 124 3c73 0 151 3 224 -11
c91 -17 128 -73 128 -163v-24h-87c0 29 1 60 -18 84c-26 33 -107 33 -145 34c-31 1 -63 1 -94 1c-54 0 -175 1 -226 -15c-33 -10 -50 -29 -56 -63c-6 -36 -6 -76 -6 -112c0 -24 0 -47 3 -71c12 16 22 28 38 39c52 35 196 32 256 31l127 -2c144 -2 220 -27 220 -188zM682 208
c0 26 -2 57 -18 79c-9 12 -18 18 -32 22c-44 14 -137 15 -183 15c-52 0 -105 -2 -157 -3c-95 -2 -160 -10 -160 -120c0 -28 6 -72 27 -93c9 -9 23 -15 35 -19c50 -14 157 -15 210 -15c57 0 169 1 223 17c53 16 55 70 55 117z" />
    <glyph glyph-name="seven" unicode="7" horiz-adv-x="750" 
d="M736 535l-476 -535h-116l503 564v24h-647v79h736v-132z" />
    <glyph glyph-name="eight" unicode="8" horiz-adv-x="815" 
d="M781 185c0 -47 -4 -104 -41 -138c-17 -16 -37 -24 -59 -30c-81 -21 -197 -21 -281 -21c-74 0 -218 0 -288 25c-19 7 -33 16 -46 31c-32 34 -33 87 -33 131c0 89 11 143 106 164c-81 17 -96 64 -96 141c0 46 6 97 36 133c36 44 131 46 182 48c38 2 77 2 115 2
c66 0 133 -2 199 -3c59 -1 120 -3 161 -52c29 -35 34 -82 34 -126c0 -36 -5 -73 -25 -104c-16 -25 -40 -31 -67 -39c92 -24 103 -72 103 -162zM681 487c0 102 -40 102 -130 103c-52 1 -104 2 -156 2c-48 0 -164 4 -209 -8c-48 -13 -51 -62 -51 -104c0 -21 2 -55 16 -72
c26 -30 120 -30 155 -30c37 0 73 1 110 2c63 2 150 -5 210 8c51 11 55 54 55 99zM690 197c0 27 -2 59 -22 80c-11 11 -22 16 -36 19c-57 14 -162 12 -221 12c-62 0 -166 2 -227 -12c-58 -13 -60 -59 -60 -110c0 -25 2 -67 22 -85c10 -9 21 -12 34 -15c22 -5 47 -6 69 -7
c55 -3 109 -4 163 -4c49 0 99 2 148 4c34 1 85 4 111 29c21 21 19 62 19 89z" />
    <glyph glyph-name="nine" unicode="9" horiz-adv-x="806" 
d="M766 360c0 -34 -1 -68 -2 -102c-6 -179 -22 -246 -218 -255c-70 -3 -140 -5 -210 -5c-83 0 -203 -9 -268 52c-39 36 -37 91 -38 140h86c0 -32 0 -66 26 -88c38 -33 148 -29 196 -29c19 0 39 1 58 1c66 1 146 -2 210 16c37 10 55 26 62 64c9 46 10 97 10 144
c0 13 0 26 -1 39c-10 -16 -16 -23 -31 -34c-48 -36 -109 -37 -166 -39c-32 -1 -63 -1 -95 -1c-74 0 -151 -3 -224 10c-110 19 -126 95 -126 195c0 89 17 163 115 184c70 15 167 16 239 16c46 0 93 -2 139 -4c100 -4 207 -13 229 -131c10 -56 9 -117 9 -173zM672 465
c0 34 -5 74 -34 96c-41 30 -137 28 -187 28h-78c-58 0 -117 0 -174 -10c-70 -13 -75 -51 -75 -116c0 -33 2 -75 28 -98c31 -28 115 -25 154 -25c42 0 84 -1 126 -1c62 0 163 -6 213 38c26 23 27 56 27 88z" />
    <glyph glyph-name="colon" unicode=":" horiz-adv-x="189" 
d="M149 351h-109v112h109v-112zM149 0h-109v113h109v-113z" />
    <glyph glyph-name="semicolon" unicode=";" horiz-adv-x="184" 
d="M150 351h-108v112h108v-112zM150 0c0 -26 0 -53 -9 -77c-14 -37 -59 -47 -94 -47h-17v62h17c33 0 32 39 32 62h-37v112h108v-112z" />
    <glyph glyph-name="question" unicode="?" horiz-adv-x="686" 
d="M660 462c0 -244 -253 -147 -307 -212c-11 -13 -10 -41 -10 -58h-82c0 23 1 45 6 68c28 123 223 69 285 128c23 21 26 65 26 94c0 42 -9 86 -54 99s-158 13 -207 13c-50 0 -100 -1 -149 -11c-11 -2 -23 -5 -32 -11c-29 -20 -26 -78 -27 -108c0 -7 -1 -14 -1 -21h-81v31
c0 49 -1 111 35 149c17 18 38 29 62 35c62 16 130 13 193 13c61 0 177 1 235 -15c95 -27 108 -108 108 -194zM359 0h-113v116h113v-116z" />
    <glyph glyph-name="A" unicode="A" horiz-adv-x="890" 
d="M894 0h-99l-79 141h-539l-80 -141h-100l377 667h143zM673 216l-207 371h-36l-210 -371h453z" />
    <glyph glyph-name="B" unicode="B" horiz-adv-x="874" 
d="M831 190c0 -84 -14 -157 -108 -176c-70 -14 -146 -14 -217 -14h-443v667h443c26 0 51 -1 77 -2c61 -2 123 1 173 -39c41 -33 51 -82 51 -132c0 -71 -11 -118 -83 -142c94 -15 107 -77 107 -162zM720 484c0 104 -53 100 -141 101c-24 0 -49 1 -73 1h-353v-206h368
c45 0 92 -2 136 8c50 12 63 48 63 96zM744 192c0 19 -2 49 -10 67c-22 52 -107 44 -151 45c-26 0 -51 1 -77 1h-353v-229h366c47 0 161 -4 199 28c23 19 26 60 26 88z" />
    <glyph glyph-name="C" unicode="C" horiz-adv-x="858" 
d="M822 228c-2 -58 1 -138 -42 -182c-40 -41 -132 -43 -185 -45c-41 -2 -82 -2 -123 -2c-50 0 -100 0 -151 2c-67 2 -173 1 -226 51c-54 52 -52 203 -52 271c0 47 2 95 6 142c8 97 25 172 134 189c83 13 190 14 275 14c75 0 175 0 248 -18c28 -7 51 -19 72 -39
c39 -37 34 -116 35 -165h-83c0 33 4 80 -20 106c-37 40 -207 37 -257 37c-60 0 -242 3 -284 -31c-15 -12 -20 -25 -25 -44c-12 -48 -13 -103 -13 -152c0 -39 3 -78 4 -117c1 -36 1 -115 31 -141c17 -15 40 -18 61 -21c65 -8 145 -8 211 -8h22l131 4c37 1 95 2 123 29
c25 24 21 87 21 120h87z" />
    <glyph glyph-name="D" unicode="D" horiz-adv-x="929" 
d="M886 325c0 -132 -10 -287 -168 -315c-63 -11 -128 -10 -191 -10h-464v662h458c30 0 61 -1 91 -1c80 -1 157 -4 216 -65c61 -63 58 -190 58 -271zM799 334c0 54 -4 160 -41 204c-43 52 -152 43 -212 43h-393v-503h461c47 0 101 3 136 38c46 46 49 157 49 218z" />
    <glyph glyph-name="E" unicode="E" horiz-adv-x="744" 
d="M717 0h-654v667h653v-82h-563v-200h540v-78h-540v-227h564v-80z" />
    <glyph glyph-name="F" unicode="F" horiz-adv-x="709" 
d="M689 591h-539v-216h515v-73h-515v-302h-87v667h626v-76z" />
    <glyph glyph-name="G" unicode="G" horiz-adv-x="899" 
d="M859 291c0 -64 3 -182 -43 -233c-27 -30 -68 -44 -107 -50c-77 -11 -158 -11 -236 -11c-54 0 -108 2 -162 3c-97 2 -218 2 -249 116c-18 66 -19 148 -19 216c0 41 2 81 5 122c8 106 26 185 145 203c89 13 181 13 270 13c41 0 83 -3 124 -4c90 -3 204 0 249 -95
c17 -37 18 -73 19 -113h-92c0 28 0 75 -22 96c-15 14 -31 19 -50 22c-66 11 -169 11 -237 11c-40 0 -81 -1 -121 -2c-41 -1 -134 -1 -166 -31c-37 -35 -33 -164 -33 -210c0 -56 0 -115 8 -171c3 -21 7 -43 21 -60c29 -35 140 -35 181 -35c54 0 107 -1 161 -1
c60 0 122 -1 182 10c17 3 35 7 49 17c36 26 34 96 34 135v20h-348v79h437v-47z" />
    <glyph glyph-name="H" unicode="H" horiz-adv-x="918" 
d="M855 0h-90v303h-610v-303h-92v667h92v-282h610v282h90v-667z" />
    <glyph glyph-name="I" unicode="I" horiz-adv-x="215" 
d="M151 0h-88v667h88v-667z" />
    <glyph glyph-name="J" unicode="J" horiz-adv-x="698" 
d="M641 232c0 -37 -1 -75 -8 -111c-8 -42 -34 -82 -74 -100c-60 -27 -201 -27 -266 -27c-72 0 -193 -3 -246 54c-18 19 -27 43 -32 68c-8 41 -7 83 -8 125h84c0 -41 -6 -105 25 -137c33 -34 133 -32 179 -32c44 0 87 3 131 4c36 1 74 2 102 28c29 28 27 101 27 138v425h86
v-435z" />
    <glyph glyph-name="K" unicode="K" horiz-adv-x="875" 
d="M881 0h-157l-457 303h-115v-303h-89v667h89v-287h115l433 287h155l-496 -325z" />
    <glyph glyph-name="L" unicode="L" horiz-adv-x="692" 
d="M679 0h-616v667h90v-586h526v-81z" />
    <glyph glyph-name="M" unicode="M" horiz-adv-x="1201" 
d="M1137 0h-88v584h-37l-372 -584h-72l-376 584h-39v-584h-90v667h179l361 -566l356 566h178v-667z" />
    <glyph glyph-name="N" unicode="N" horiz-adv-x="968" 
d="M905 0h-150l-581 583h-20v-583h-91v667h150l583 -585h21v585h88v-667z" />
    <glyph glyph-name="O" unicode="O" horiz-adv-x="921" 
d="M878 331c0 -37 -2 -75 -4 -112c-6 -94 -13 -178 -119 -204c-80 -19 -206 -16 -289 -16c-53 0 -106 2 -159 3c-73 1 -158 0 -214 55c-44 43 -46 123 -48 180c-2 32 -2 64 -2 96c0 36 0 73 3 109c3 61 10 141 62 181c24 19 48 26 78 31c35 6 71 8 107 9c62 4 124 5 186 5
c55 0 111 -1 166 -4c89 -4 186 -12 214 -113c18 -66 19 -152 19 -220zM790 337l-3 108c-2 71 -4 120 -83 133c-85 14 -190 10 -278 10c-39 0 -77 0 -116 -2c-36 -2 -116 -6 -144 -31c-37 -33 -35 -170 -35 -215c0 -48 -3 -196 28 -228c15 -15 34 -21 54 -25
c28 -5 59 -6 87 -7c57 -3 113 -4 169 -4c48 0 95 1 143 3c37 1 114 3 143 30c14 13 20 29 24 48c10 50 12 128 11 180z" />
    <glyph glyph-name="P" unicode="P" horiz-adv-x="824" 
d="M804 461c0 -42 -2 -91 -20 -129c-40 -87 -142 -81 -222 -81h-78h-333v-251h-88v667h421c27 0 55 -1 82 -2c23 -1 45 -1 68 -2c46 -2 78 -3 116 -32c50 -38 54 -112 54 -170zM717 458c0 23 0 58 -7 80c-18 55 -117 49 -161 50c-22 0 -43 1 -65 1h-333v-260h396
c42 0 108 -4 143 25c28 23 27 71 27 104z" />
    <glyph glyph-name="Q" unicode="Q" horiz-adv-x="931" 
d="M934 88l-39 -66l-60 38c-55 -58 -122 -59 -198 -60c-58 -1 -116 -2 -174 -2c-51 0 -103 1 -154 2c-112 2 -224 2 -252 133c-14 67 -14 146 -14 214c0 77 -5 216 59 273c22 19 45 28 73 34c81 17 202 15 285 15c55 0 110 -3 165 -4c65 -2 145 1 197 -44
c65 -56 59 -209 59 -286c0 -66 0 -138 -16 -203zM795 337c0 29 -1 59 -2 88c-6 155 -38 157 -185 161c-57 2 -113 3 -170 3c-54 0 -232 7 -273 -36c-36 -37 -33 -163 -33 -210c0 -59 0 -121 11 -179c3 -18 8 -37 20 -51c33 -39 128 -36 174 -36h151c69 0 141 -1 210 8
c27 4 39 6 60 24l-264 169l42 65l251 -161c6 29 5 58 6 87c1 23 2 45 2 68z" />
    <glyph glyph-name="R" unicode="R" horiz-adv-x="870" 
d="M830 464c0 -93 -6 -154 -109 -174c82 -15 97 -64 97 -140v-150h-87v115c0 124 -29 143 -150 143h-427v-258h-91v667h417c33 0 66 -1 99 -1c162 -2 251 -15 251 -202zM741 466c0 29 -6 81 -31 99c-35 26 -154 23 -199 23h-357v-253c141 0 281 -1 422 -1
c51 0 141 -4 157 60c6 23 8 49 8 72z" />
    <glyph glyph-name="S" unicode="S" horiz-adv-x="812" 
d="M775 194c0 -46 -6 -100 -40 -135c-52 -54 -168 -57 -237 -60c-49 -2 -99 -2 -148 -2c-66 0 -136 -2 -201 13c-27 6 -51 18 -72 37c-41 37 -39 92 -39 143v18h86c5 -33 -5 -76 18 -103c25 -30 102 -29 137 -30c41 -1 82 -2 123 -2c45 0 91 2 136 4c83 4 149 9 149 110
c0 20 -2 43 -10 62c-11 25 -28 32 -53 37c-53 11 -113 8 -167 8h-178c-141 0 -242 24 -242 187c0 153 106 173 233 182c55 4 110 7 165 7c39 0 77 -2 116 -5c54 -4 110 -11 154 -46c47 -38 49 -93 50 -149h-89c0 31 4 66 -21 89c-40 36 -164 36 -214 36
c-72 0 -165 1 -235 -17c-53 -14 -70 -44 -70 -98c0 -23 2 -60 21 -76c48 -40 237 -33 295 -33h130c54 0 111 -2 154 -39c41 -35 49 -87 49 -138z" />
    <glyph glyph-name="T" unicode="T" horiz-adv-x="784" 
d="M771 587h-333v-587h-89v587h-336v80h758v-80z" />
    <glyph glyph-name="U" unicode="U" horiz-adv-x="901" 
d="M844 340c0 -26 -1 -52 -1 -78c-1 -63 4 -149 -36 -201c-45 -58 -147 -58 -213 -59c-47 -1 -95 -3 -142 -3c-48 0 -97 1 -145 2c-68 1 -155 0 -205 53c-51 54 -45 141 -45 210v403h87v-403c0 -33 -2 -104 10 -134c4 -9 9 -17 16 -23c35 -34 215 -29 261 -29
c71 0 179 -3 248 10c21 4 42 10 58 26c23 24 20 121 20 151c2 134 1 268 1 402h86v-327z" />
    <glyph glyph-name="V" unicode="V" horiz-adv-x="875" 
d="M878 670l-368 -670h-137l-376 670h98l330 -588h31l323 588h99z" />
    <glyph glyph-name="W" unicode="W" horiz-adv-x="1412" 
d="M1415 662l-315 -662h-150l-242 570l-254 -570h-151l-306 671h96l269 -596h28l262 592h110l252 -592h27l277 587h97z" />
    <glyph glyph-name="X" unicode="X" horiz-adv-x="886" 
d="M889 0h-126l-320 309l-315 -309h-131l368 347l-335 324h128l289 -285l293 285h131l-343 -324z" />
    <glyph glyph-name="Y" unicode="Y" horiz-adv-x="871" 
d="M874 667l-391 -394v-273h-89v273l-397 394h120l322 -320l311 320h124z" />
    <glyph glyph-name="Z" unicode="Z" horiz-adv-x="802" 
d="M788 0h-771v59l619 527h-596v81h740v-71l-607 -518h615v-78z" />
    <glyph glyph-name="a" unicode="a" 
d="M603 0h-73l2 52h-4c-9 -13 -17 -22 -30 -31c-45 -33 -128 -29 -181 -29c-57 0 -158 -3 -212 16c-17 6 -31 15 -44 28c-27 28 -28 67 -28 104c0 39 6 76 37 102c43 36 145 32 197 32c44 0 89 -2 133 -3c49 -1 93 -6 124 -47h6v49c0 32 -1 61 -22 87
c-37 46 -137 41 -189 41c-38 0 -149 6 -176 -29c-12 -15 -13 -33 -13 -51h-76c-1 7 -1 13 -1 20c0 28 6 51 23 73c44 56 175 52 238 52c73 0 195 6 251 -52c13 -13 21 -27 27 -45c12 -36 11 -75 11 -113v-256zM525 134c0 15 -3 31 -14 42c-33 37 -149 34 -194 34
c-39 0 -124 3 -161 -8s-47 -37 -47 -73c0 -34 13 -57 47 -65c45 -11 128 -9 177 -9c42 0 149 -3 179 33c11 13 13 30 13 46z" />
    <glyph glyph-name="b" unicode="b" horiz-adv-x="698" 
d="M661 222c0 -223 -120 -228 -304 -228c-48 0 -99 -2 -146 11c-34 9 -54 25 -74 54h-5l1 -59h-73v667h74v-259h5c45 65 135 59 205 59c61 0 137 3 197 -14c28 -8 51 -23 71 -44c46 -47 49 -125 49 -187zM582 232c0 43 -2 95 -31 130c-39 47 -151 41 -205 41
c-150 0 -215 -3 -215 -176c0 -65 5 -135 78 -156c46 -13 126 -13 174 -13c42 0 83 1 123 14c74 25 76 92 76 160z" />
    <glyph glyph-name="c" unicode="c" horiz-adv-x="651" 
d="M617 168c-1 -45 -5 -90 -38 -123c-51 -52 -140 -50 -208 -50c-67 0 -163 -1 -227 20c-93 31 -107 132 -107 217c0 218 100 237 290 237c67 0 197 3 248 -52c31 -34 38 -75 40 -119h-77c-2 77 -39 94 -110 102c-34 4 -68 4 -102 4c-157 0 -211 -8 -211 -183
c0 -44 4 -94 37 -127c38 -38 155 -35 204 -35c32 0 64 0 95 5c69 10 89 36 92 104h74z" />
    <glyph glyph-name="d" unicode="d" horiz-adv-x="697" 
d="M637 0h-73l1 59h-5c-34 -52 -77 -59 -136 -63c-29 -2 -57 -2 -86 -2c-55 0 -113 0 -167 12c-31 7 -57 20 -81 42c-51 47 -53 125 -53 189c0 236 131 231 320 231c68 0 159 4 202 -60h5v259h73v-667zM566 230c0 170 -66 174 -217 174h-9c-47 0 -97 0 -143 -12
c-78 -20 -82 -96 -82 -164c0 -162 66 -169 211 -169c47 0 118 0 163 13c72 20 77 94 77 158z" />
    <glyph glyph-name="e" unicode="e" horiz-adv-x="665" 
d="M631 215h-516c1 -40 5 -87 34 -118c40 -43 165 -38 218 -38c46 0 136 -3 170 34c14 16 15 29 17 50h76c-1 -91 -48 -126 -133 -141c-41 -7 -82 -8 -123 -8c-64 0 -159 1 -221 18c-101 28 -116 130 -116 221c0 219 99 236 290 236c31 0 62 0 94 -2c62 -4 119 -11 163 -60
c47 -52 46 -126 47 -192zM550 278c0 101 -60 119 -147 124c-26 2 -52 2 -78 2c-35 0 -70 -1 -104 -6c-76 -12 -98 -46 -103 -120h432z" />
    <glyph glyph-name="f" unicode="f" horiz-adv-x="428" 
d="M421 401h-234v-401h-73v401h-104v62h104c0 54 -2 106 34 150c43 52 127 52 189 53l84 2v-62l-78 -3c-41 -2 -102 1 -133 -30c-22 -23 -18 -65 -20 -94c0 -5 -1 -10 -1 -16h232v-62z" />
    <glyph glyph-name="g" unicode="g" horiz-adv-x="695" 
d="M638 117c0 -19 -1 -37 -1 -56c-1 -61 -1 -128 -43 -177c-55 -64 -193 -57 -269 -57c-69 0 -153 -1 -216 33c-47 25 -60 66 -60 117h75c2 -18 4 -33 16 -48c32 -40 134 -38 179 -38c48 0 136 1 181 17c16 6 26 12 37 25c27 32 26 104 28 144h-5c-13 -17 -23 -27 -41 -37
c-44 -25 -135 -23 -185 -23c-52 0 -142 1 -191 19c-89 32 -106 128 -106 211c0 220 136 222 312 222c71 0 171 6 213 -65h5l-2 59h73v-346zM566 255c0 79 -15 124 -98 140c-39 8 -79 8 -118 8c-47 0 -97 0 -143 -10c-81 -17 -91 -81 -91 -154c0 -43 5 -89 36 -122
c37 -39 140 -36 189 -36c47 0 100 -1 146 12c75 20 79 96 79 162z" />
    <glyph glyph-name="h" unicode="h" horiz-adv-x="688" 
d="M634 0h-72v218c0 47 5 108 -26 147c-33 42 -124 40 -172 40c-30 0 -61 -2 -91 -5c-56 -6 -115 -23 -132 -84c-9 -32 -8 -65 -8 -98v-218h-73v667h73v-272h6c30 57 85 67 144 72c30 2 61 3 91 3c65 0 173 2 222 -50c14 -16 23 -33 28 -53c11 -41 10 -84 10 -126v-241z" />
    <glyph glyph-name="i" unicode="i" horiz-adv-x="193" 
d="M133 580h-73v87h73v-87zM133 0h-73v463h73v-463z" />
    <glyph glyph-name="j" unicode="j" horiz-adv-x="193" 
d="M133 582h-73v85h73v-85zM133 -37c0 -32 -5 -60 -24 -86c-31 -44 -83 -42 -132 -42v68c85 0 83 14 83 92v468h73v-500z" />
    <glyph glyph-name="k" unicode="k" horiz-adv-x="613" 
d="M619 0h-122l-326 220h-38v-220h-73v667h73v-382h43l280 178h116l-323 -211z" />
    <glyph glyph-name="l" unicode="l" horiz-adv-x="194" 
d="M134 0h-74v667h74v-667z" />
    <glyph glyph-name="m" unicode="m" horiz-adv-x="1084" 
d="M1031 0h-72v261c0 35 0 83 -26 110c-33 34 -114 34 -157 34c-187 0 -197 -49 -197 -223v-182h-71v261c0 35 2 83 -25 110c-34 35 -113 35 -158 35c-192 0 -195 -49 -195 -224v-182h-73v463h73l1 -61c52 69 108 69 189 69c54 0 118 -1 170 -20c34 -13 51 -30 69 -62
c42 82 138 81 219 81c72 0 165 1 217 -57c41 -46 36 -112 36 -169v-244z" />
    <glyph glyph-name="n" unicode="n" horiz-adv-x="684" 
d="M631 0h-72v230c0 43 3 99 -26 135c-34 41 -124 39 -172 39c-73 0 -194 0 -222 -85c-11 -33 -9 -69 -9 -104v-215h-73v463h73v-70h5c29 56 79 68 138 73c32 3 64 4 96 4c68 0 173 3 224 -52c38 -40 38 -104 38 -156v-262z" />
    <glyph glyph-name="o" unicode="o" horiz-adv-x="683" 
d="M646 229c0 -220 -102 -235 -292 -235c-192 0 -317 2 -317 235c0 216 93 240 284 240c201 0 325 3 325 -240zM568 239c0 42 -3 89 -30 123c-38 48 -150 42 -204 42c-151 0 -219 -2 -219 -177c0 -44 3 -102 38 -134c40 -38 143 -34 194 -34c49 0 101 -2 148 13
c72 23 73 103 73 167z" />
    <glyph glyph-name="p" unicode="p" horiz-adv-x="694" 
d="M657 222c0 -59 -8 -122 -49 -168c-16 -18 -35 -31 -58 -40c-59 -22 -143 -20 -205 -20c-70 0 -166 -4 -211 61h-5v-222h-72v630h72v-59h5c11 18 18 26 36 38c46 30 130 27 183 27c84 0 184 7 251 -53c51 -45 53 -132 53 -194zM578 235c0 160 -62 169 -207 169
c-46 0 -123 1 -167 -12c-72 -20 -77 -94 -77 -158c0 -33 1 -74 13 -105c29 -75 138 -70 204 -70c49 0 104 -1 152 11c78 20 82 96 82 165z" />
    <glyph glyph-name="q" unicode="q" horiz-adv-x="692" 
d="M635 -167h-73v223h-4c-8 -14 -15 -20 -28 -29c-48 -34 -119 -31 -175 -31c-35 0 -71 0 -106 2c-62 3 -119 9 -164 57c-46 49 -48 125 -48 188c0 220 116 227 302 227c47 0 103 1 149 -11c33 -9 56 -25 73 -55h4v59h70v-630zM566 237c0 63 -5 135 -77 155
c-51 14 -113 13 -166 13c-148 0 -208 -11 -208 -177c0 -43 2 -92 31 -127c39 -47 151 -41 205 -41c43 0 101 0 142 13c70 22 73 102 73 164z" />
    <glyph glyph-name="r" unicode="r" horiz-adv-x="558" 
d="M551 255h-75c0 123 -7 149 -139 149c-165 0 -206 -20 -206 -190v-214h-74v463h74v-62h5c39 75 138 68 210 68c52 0 117 1 158 -35c37 -33 47 -84 47 -131v-48z" />
    <glyph glyph-name="s" unicode="s" horiz-adv-x="652" 
d="M619 130c0 -33 -4 -60 -25 -86c-35 -44 -109 -47 -160 -49c-34 -2 -67 -2 -101 -2c-67 0 -147 -1 -213 15c-69 17 -87 62 -87 129c0 8 0 16 1 24h78c0 -28 -4 -59 19 -80c32 -29 164 -23 203 -23c42 0 128 -3 168 12c29 10 39 31 39 61c0 70 -59 71 -115 71
c-73 0 -146 2 -219 3c-98 1 -165 18 -165 129c0 30 5 57 23 81c34 46 110 50 162 53c34 2 67 2 101 2c58 0 147 -1 202 -21c21 -8 38 -20 52 -37c22 -26 20 -59 20 -91h-77c-4 20 1 39 -15 56c-29 29 -145 28 -185 28c-45 0 -165 5 -194 -31c-10 -12 -12 -28 -12 -43
c0 -13 1 -27 10 -38c20 -25 85 -23 113 -23c41 0 82 0 123 -1c57 -1 120 3 175 -14c62 -19 79 -64 79 -125z" />
    <glyph glyph-name="t" unicode="t" horiz-adv-x="545" 
d="M532 180c0 -43 1 -90 -24 -128c-36 -54 -117 -57 -175 -57c-76 0 -175 2 -198 91c-8 29 -8 59 -8 89v226h-114v62h114v115h73v-115h325v-62h-325v-201c0 -10 1 -19 1 -29c1 -28 -1 -57 17 -80c24 -31 86 -31 121 -31c126 0 120 38 120 150h73v-30z" />
    <glyph glyph-name="u" unicode="u" horiz-adv-x="670" 
d="M614 0h-73v70h-5c-9 -16 -17 -26 -31 -38c-47 -39 -140 -38 -198 -38c-63 0 -158 1 -209 44c-45 38 -45 115 -45 169v256h73v-234c0 -14 0 -29 1 -43c1 -35 5 -70 33 -95c36 -32 110 -32 155 -32c74 0 200 3 220 96c5 25 6 53 6 79v229h73v-463z" />
    <glyph glyph-name="v" unicode="v" horiz-adv-x="625" 
d="M628 463l-269 -463h-95l-267 463h85l225 -395h8l225 395h88z" />
    <glyph glyph-name="w" unicode="w" horiz-adv-x="930" 
d="M933 463l-215 -463h-108l-143 394h-7l-141 -394h-108l-214 463h81l180 -396h8l140 396h115l141 -396h8l179 396h84z" />
    <glyph glyph-name="x" unicode="x" horiz-adv-x="638" 
d="M638 0h-114l-204 197l-206 -197h-114l264 244l-235 219h109l182 -176l183 176h108l-234 -219z" />
    <glyph glyph-name="y" unicode="y" horiz-adv-x="606" 
d="M609 463l-225 -431c-28 -54 -64 -127 -115 -162c-44 -30 -94 -31 -145 -31h-41v67c11 -1 22 -1 33 -1c94 0 122 12 166 96h-24l-261 462h86l223 -404h10l207 404h86z" />
    <glyph glyph-name="z" unicode="z" horiz-adv-x="571" 
d="M551 0h-528v70l408 331l-391 -1v63h509v-65l-413 -337h415v-61z" />
    <glyph glyph-name="exclamdown" unicode="&#xa1;" horiz-adv-x="235" 
d="M172 554h-109v113h109v-113zM157 0h-79v477h79v-477z" />
    <glyph glyph-name="cent" unicode="&#xa2;" horiz-adv-x="698" 
d="M659 257c-1 -50 4 -114 -34 -152c-44 -45 -188 -38 -246 -38v-94h-61v94c-238 0 -278 10 -278 257c0 58 -1 126 15 183c5 18 13 36 26 49c40 42 129 42 182 42c18 0 37 0 55 1v94h61v-93c59 0 127 1 185 -13c23 -6 42 -17 59 -33c35 -33 29 -95 29 -139h-76
c0 26 4 64 -14 84c-26 30 -147 27 -183 27v-388c16 1 31 1 47 2c33 1 114 -3 139 21c19 18 13 71 15 96h79zM318 139v387h-10c-32 0 -134 0 -160 -22c-27 -23 -28 -114 -28 -148c0 -31 2 -61 3 -92c1 -28 1 -84 23 -105c22 -20 94 -20 122 -20h50z" />
    <glyph glyph-name="sterling" unicode="&#xa3;" horiz-adv-x="836" 
d="M829 0h-786v82c89 4 83 71 83 140v31h-119v83h119c0 42 -1 83 1 125c4 79 19 162 105 190c63 21 177 21 244 21s155 2 220 -13c90 -20 109 -95 109 -178v-33h-87c0 30 4 84 -17 108c-31 37 -163 34 -206 34c-58 0 -144 0 -201 -12c-38 -8 -62 -28 -70 -67
c-11 -53 -7 -121 -7 -175h328v-83h-328v-31c0 -60 5 -108 -53 -140h665v-82z" />
    <glyph glyph-name="quotedblleft" unicode="&#x201c;" horiz-adv-x="368" 
d="M331 618c-30 0 -49 -9 -49 -43v-25h43v-113h-108v113c0 91 16 123 114 123v-55zM151 618c-30 0 -49 -9 -49 -43v-25h43v-113h-108v113c0 91 16 123 114 123v-55z" />
    <glyph glyph-name="guillemotleft" unicode="&#xab;" horiz-adv-x="424" 
d="M390 81l-65 -32l-135 241l96 110l57 -48l-62 -71zM246 34l-65 -34l-161 292l117 135l55 -48l-83 -96z" />
    <glyph glyph-name="periodcentered" unicode="&#xb7;" horiz-adv-x="130" 
d="M130 272h-130v136h130v-136z" />
    <glyph glyph-name="bullet" unicode="&#x2022;" horiz-adv-x="667" 
d="M471 340c0 -75 -61 -140 -137 -140c-77 0 -138 64 -138 140s61 140 138 140c76 0 137 -65 137 -140z" />
    <glyph glyph-name="quotedblbase" unicode="&#x201e;" horiz-adv-x="368" 
d="M331 0c0 -90 -16 -124 -114 -124v55c31 0 49 10 49 44v25h-44v112h109v-112zM151 0c0 -90 -16 -124 -114 -124v55c31 0 49 10 49 44v25h-44v112h109v-112z" />
    <glyph glyph-name="quotedblright" unicode="&#x201d;" horiz-adv-x="368" 
d="M331 555c0 -91 -15 -124 -114 -124v55c30 0 49 9 49 43v26h-44v112h109v-112zM151 555c0 -91 -15 -124 -114 -124v55c30 0 49 9 49 43v26h-44v112h109v-112z" />
    <glyph glyph-name="guillemotright" unicode="&#xbb;" horiz-adv-x="433" 
d="M413 288l-172 -288l-62 37l143 244l-81 97l58 46zM240 293l-142 -241l-65 35l116 198l-61 73l57 47z" />
    <glyph glyph-name="questiondown" unicode="&#xbf;" horiz-adv-x="686" 
d="M440 551h-113v116h113v-116zM660 192c0 -49 2 -110 -35 -148c-18 -19 -38 -30 -63 -36c-61 -15 -130 -12 -192 -12c-61 0 -178 -2 -236 14c-24 7 -45 19 -63 36c-42 39 -44 105 -44 158c0 47 6 94 40 129c70 72 231 40 266 84c12 15 10 39 10 58h82c0 -23 -1 -45 -6 -68
c-17 -74 -100 -86 -164 -94c-34 -4 -94 -9 -121 -34c-23 -21 -26 -66 -26 -95c0 -42 9 -85 54 -98s159 -13 207 -13c49 0 100 0 149 10c12 2 24 5 34 12c28 20 26 77 26 107v21h81c1 -10 1 -21 1 -31z" />
    <glyph glyph-name="emdash" unicode="&#x2014;" horiz-adv-x="967" 
d="M967 193h-967v87h967v-87z" />
    <glyph glyph-name="AE" unicode="&#xc6;" horiz-adv-x="1367" 
d="M1341 0h-657v138h-465l-112 -138h-117l533 667h813v-80h-560v-203h537v-78h-537v-226h565v-80zM684 216v371h-109l-293 -371h402z" />
    <glyph glyph-name="Oslash" unicode="&#xd8;" horiz-adv-x="924" 
d="M926 583l-61 -40c19 -59 16 -137 16 -199c0 -78 4 -225 -50 -289c-48 -58 -163 -56 -231 -58c-54 -2 -109 -2 -163 -2c-79 0 -161 0 -239 11c-41 6 -71 16 -102 44l-89 -55v89l54 35c-18 45 -18 169 -18 218c0 78 -3 226 61 284c21 19 44 28 72 34c80 17 193 15 275 15
c86 0 199 0 283 -13c45 -7 65 -13 96 -47l96 61v-88zM754 561c-32 16 -48 17 -84 20c-74 5 -149 7 -223 7c-41 0 -83 -1 -124 -2c-38 -1 -122 -2 -153 -28c-14 -11 -20 -26 -24 -43c-12 -51 -13 -112 -13 -165c0 -38 2 -76 2 -114c0 -23 1 -44 7 -66zM792 335v87
c0 24 -1 47 -5 71l-611 -392c32 -17 48 -17 83 -20c49 -4 98 -5 147 -5c61 0 122 1 183 2c42 1 141 1 172 35c13 14 17 35 20 53c9 55 11 113 11 169z" />
    <glyph glyph-name="OE" unicode="&#x152;" horiz-adv-x="1471" 
d="M1444 0h-654v27c-68 -33 -248 -28 -324 -28c-53 0 -106 2 -159 3c-73 1 -158 0 -214 55c-43 42 -46 120 -48 176c-2 33 -2 67 -2 100c0 39 1 78 3 117c4 60 11 133 62 173c50 40 140 39 201 41c62 2 123 4 185 4c68 0 235 0 296 -29v28h653v-82h-563v-200h539v-78h-539
v-227h564v-80zM790 307v13c0 42 -1 83 -3 125c-3 71 -4 120 -83 133c-84 14 -191 10 -278 10c-39 0 -77 0 -116 -2c-36 -2 -116 -6 -144 -31c-37 -33 -35 -170 -35 -215c0 -48 -3 -196 28 -228c15 -15 33 -21 54 -25c28 -5 58 -6 86 -7c57 -3 113 -4 170 -4c48 0 95 1 143 3
c38 1 113 3 143 30c39 36 35 151 35 198z" />
    <glyph glyph-name="ae" unicode="&#xe6;" horiz-adv-x="1154" 
d="M1120 215h-516c1 -42 4 -86 34 -118c41 -44 171 -39 225 -39c44 0 131 -2 163 35c13 15 15 31 16 50h76c-2 -91 -48 -126 -134 -141c-41 -7 -82 -8 -123 -8c-49 0 -98 2 -147 6c-62 5 -103 12 -147 59c-42 -49 -92 -58 -154 -62c-36 -3 -72 -3 -108 -3
c-53 0 -149 -1 -200 15c-61 19 -72 71 -72 129c0 137 96 137 205 137h14l131 -2c52 -1 108 -1 142 -47h6c-1 24 -1 49 -1 73c0 33 -14 65 -43 82c-36 21 -122 22 -163 22c-39 0 -158 6 -183 -31c-9 -14 -10 -33 -10 -49h-77c-1 7 -1 15 -1 22c0 28 7 52 25 74
c44 52 178 49 239 49c60 0 167 -1 221 -30c13 -7 24 -18 34 -29c45 44 88 53 150 57c29 2 59 2 88 2h10c198 0 300 -13 300 -239v-14zM1039 278c-1 36 -5 70 -35 94c-42 35 -139 32 -190 32c-49 0 -127 2 -168 -29c-31 -23 -37 -61 -40 -97h433zM527 134
c0 61 -57 70 -106 75c-31 2 -61 3 -92 3h-18l-88 -1c-66 -1 -113 -5 -113 -82c0 -34 15 -54 47 -63c42 -12 124 -9 168 -9s111 -2 154 12c32 10 48 31 48 65z" />
    <glyph glyph-name="dotlessi" unicode="&#x131;" horiz-adv-x="193" 
d="M133 0h-73v463h73v-463z" />
    <glyph glyph-name="oslash" unicode="&#xf8;" horiz-adv-x="682" 
d="M646 227c0 -226 -119 -233 -307 -233c-59 0 -174 -1 -224 35l-50 -36l-38 53l41 30c-29 48 -31 106 -31 161c0 226 117 232 306 232c73 0 152 4 219 -30l44 32l39 -52l-35 -26c32 -45 36 -113 36 -166zM567 228c0 39 -1 84 -20 119l-367 -271c51 -18 105 -17 158 -17
c49 0 104 0 152 13c71 20 77 93 77 156zM495 390l-12 4c-44 15 -98 10 -144 10c-45 0 -95 1 -139 -10c-77 -19 -85 -90 -85 -159c0 -36 2 -78 16 -112z" />
    <glyph glyph-name="oe" unicode="&#x153;" horiz-adv-x="1197" 
d="M1163 215h-516c1 -40 5 -87 34 -118c40 -43 164 -38 217 -38c45 0 137 -4 171 34c14 16 15 29 17 50h76c-1 -87 -44 -124 -127 -140c-42 -8 -86 -9 -129 -9c-71 0 -152 -1 -221 18c-38 11 -54 21 -77 53c-21 -30 -36 -40 -70 -52c-58 -21 -123 -19 -184 -19
c-62 0 -126 0 -187 14c-114 27 -130 124 -130 227c0 212 99 234 284 234c37 0 75 0 112 -2c71 -4 128 -9 174 -69c22 29 37 41 72 53c55 19 122 18 179 18c35 0 71 0 106 -3c59 -4 111 -13 152 -59c47 -52 46 -126 47 -192zM1082 278c0 101 -60 119 -147 124
c-26 2 -52 2 -78 2c-35 0 -70 -1 -104 -6c-76 -12 -98 -46 -104 -120h433zM568 239c0 42 -3 89 -30 123c-38 48 -150 42 -204 42c-151 0 -219 -2 -219 -177c0 -44 3 -102 38 -134c40 -38 143 -34 194 -34c49 0 101 -2 148 13c72 23 73 103 73 167z" />
    <glyph glyph-name="germandbls" unicode="&#xdf;" horiz-adv-x="665" 
d="M628 224c0 -76 -1 -187 -86 -218c-38 -14 -81 -13 -121 -13c-39 0 -80 -1 -118 6c-34 6 -60 25 -73 58c-9 22 -9 46 -10 70l60 10c1 -13 1 -25 4 -38c10 -42 45 -45 82 -45h48c15 0 31 1 46 1c27 1 54 3 71 26c25 35 21 112 21 152c0 47 0 106 -35 142
c-26 27 -69 27 -104 27h-127v61c40 0 79 0 119 1c61 1 111 -5 111 72c0 76 -49 76 -110 76c-51 0 -102 1 -153 1c-75 0 -120 -6 -120 -94v-519h-73v533c0 148 116 141 230 141c40 0 80 -1 120 -2c48 -1 96 1 137 -28c33 -23 44 -64 44 -102c0 -62 -27 -98 -88 -111v-3
c118 -15 125 -104 125 -204z" />
    <glyph glyph-name="Adieresis" unicode="&#xc4;" horiz-adv-x="890" 
d="M618 760h-129v80h129v-80zM400 760h-128v80h128v-80zM894 0h-99l-79 141h-539l-80 -141h-100l377 667h143zM673 216l-207 371h-36l-210 -371h453z" />
    <glyph glyph-name="Aring" unicode="&#xc5;" horiz-adv-x="890" 
d="M606 846c0 -30 0 -89 -23 -112c-26 -27 -110 -27 -145 -27c-122 0 -154 9 -154 137c0 61 1 110 70 124c34 7 70 7 105 7c114 0 147 -9 147 -129zM894 0h-99l-79 141h-539l-80 -141h-100l377 667h143zM527 850c0 55 -25 58 -75 58c-60 0 -88 0 -88 -67
c0 -65 23 -68 83 -68c67 0 80 9 80 77zM673 216l-207 371h-36l-210 -371h453z" />
    <glyph glyph-name="Ccedilla" unicode="&#xc7;" horiz-adv-x="858" 
d="M822 228c-2 -56 1 -139 -42 -182c-18 -18 -43 -28 -68 -33c-74 -15 -176 -15 -252 -14c-13 0 -26 1 -39 1v-19c0 -5 -2 -24 4 -30c9 -9 53 -6 67 -6c29 0 32 -10 32 -37v-64c0 -37 -11 -50 -49 -50h-106v45h71c20 0 33 -4 33 20v12v13c0 20 -18 17 -33 17h-53
c-17 0 -16 8 -16 23v77c-23 0 -45 0 -68 1c-63 2 -159 4 -208 50c-54 51 -52 203 -52 271c0 47 2 95 6 142c8 97 25 172 134 189c87 13 187 14 275 14c77 0 173 0 248 -18c27 -7 52 -20 72 -39c39 -37 34 -116 35 -165h-83c0 33 4 80 -20 106c-38 40 -206 37 -257 37
c-37 0 -75 -1 -112 -2c-42 -1 -138 -2 -172 -29c-15 -12 -20 -26 -25 -44c-12 -48 -13 -103 -13 -152c0 -39 3 -78 4 -117c1 -37 1 -114 31 -141c16 -14 40 -18 61 -21c68 -8 142 -8 211 -8c51 0 102 2 153 4c37 1 94 2 123 29c26 24 21 88 21 120h87z" />
    <glyph glyph-name="Eacute" unicode="&#xc9;" horiz-adv-x="744" 
d="M532 808l-161 -97l-39 54l144 124zM717 0h-654v667h653v-82h-563v-200h540v-78h-540v-227h564v-80z" />
    <glyph glyph-name="Ntilde" unicode="&#xd1;" horiz-adv-x="968" 
d="M672 820c0 -56 -39 -83 -92 -83c-39 0 -73 16 -109 29c-20 7 -67 26 -88 26c-26 0 -33 -14 -35 -38h-52c0 56 8 109 78 109c41 0 79 -15 117 -29c25 -10 63 -26 90 -26c33 0 37 20 38 49h52c0 -5 1 -11 1 -16v-21zM905 0h-150l-581 583h-20v-583h-91v667h150l583 -585h21
v585h88v-667z" />
    <glyph glyph-name="Odieresis" unicode="&#xd6;" horiz-adv-x="921" 
d="M634 760h-130v80h130v-80zM416 760h-129v80h129v-80zM878 331c0 -37 -2 -75 -4 -112c-6 -94 -13 -178 -119 -204c-80 -19 -206 -16 -289 -16c-53 0 -106 2 -159 3c-73 1 -158 0 -214 55c-44 43 -46 123 -48 180c-2 32 -2 64 -2 96c0 36 0 73 3 109c3 61 10 141 62 181
c24 19 48 26 78 31c35 6 71 8 107 9c62 4 124 5 186 5c55 0 111 -1 166 -4c89 -4 186 -12 214 -113c18 -66 19 -152 19 -220zM790 337l-3 108c-2 71 -4 120 -83 133c-85 14 -190 10 -278 10c-39 0 -77 0 -116 -2c-36 -2 -116 -6 -144 -31c-37 -33 -35 -170 -35 -215
c0 -48 -3 -196 28 -228c15 -15 34 -21 54 -25c28 -5 59 -6 87 -7c57 -3 113 -4 169 -4c48 0 95 1 143 3c37 1 114 3 143 30c14 13 20 29 24 48c10 50 12 128 11 180z" />
    <glyph glyph-name="Udieresis" unicode="&#xdc;" horiz-adv-x="901" 
d="M624 760h-130v80h130v-80zM405 760h-128v80h128v-80zM844 340c0 -26 -1 -52 -1 -78c-1 -63 4 -149 -36 -201c-45 -58 -147 -58 -213 -59c-47 -1 -95 -3 -142 -3c-48 0 -97 1 -145 2c-68 1 -155 0 -205 53c-51 54 -45 141 -45 210v403h87v-403c0 -33 -2 -104 10 -134
c4 -9 9 -17 16 -23c35 -34 215 -29 261 -29c71 0 179 -3 248 10c21 4 42 10 58 26c23 24 20 121 20 151c2 134 1 268 1 402h86v-327z" />
    <glyph glyph-name="aacute" unicode="&#xe1;" 
d="M443 645l-127 -132l-49 42l104 152zM603 0h-73l2 52h-4c-9 -13 -17 -22 -30 -31c-45 -33 -128 -29 -181 -29c-57 0 -158 -3 -212 16c-17 6 -31 15 -44 28c-27 28 -28 67 -28 104c0 39 6 76 37 102c43 36 145 32 197 32c44 0 89 -2 133 -3c49 -1 93 -6 124 -47h6v49
c0 32 -1 61 -22 87c-37 46 -137 41 -189 41c-38 0 -149 6 -176 -29c-12 -15 -13 -33 -13 -51h-76c-1 7 -1 13 -1 20c0 28 6 51 23 73c44 56 175 52 238 52c73 0 195 6 251 -52c13 -13 21 -27 27 -45c12 -36 11 -75 11 -113v-256zM525 134c0 15 -3 31 -14 42
c-33 37 -149 34 -194 34c-39 0 -124 3 -161 -8s-47 -37 -47 -73c0 -34 13 -57 47 -65c45 -11 128 -9 177 -9c42 0 149 -3 179 33c11 13 13 30 13 46z" />
    <glyph glyph-name="agrave" unicode="&#xe0;" 
d="M391 552l-51 -39l-121 137l75 57zM603 0h-73l2 52h-4c-9 -13 -17 -22 -30 -31c-45 -33 -128 -29 -181 -29c-57 0 -158 -3 -212 16c-17 6 -31 15 -44 28c-27 28 -28 67 -28 104c0 39 6 76 37 102c43 36 145 32 197 32c44 0 89 -2 133 -3c49 -1 93 -6 124 -47h6v49
c0 32 -1 61 -22 87c-37 46 -137 41 -189 41c-38 0 -149 6 -176 -29c-12 -15 -13 -33 -13 -51h-76c-1 7 -1 13 -1 20c0 28 6 51 23 73c44 56 175 52 238 52c73 0 195 6 251 -52c13 -13 21 -27 27 -45c12 -36 11 -75 11 -113v-256zM525 134c0 15 -3 31 -14 42
c-33 37 -149 34 -194 34c-39 0 -124 3 -161 -8s-47 -37 -47 -73c0 -34 13 -57 47 -65c45 -11 128 -9 177 -9c42 0 149 -3 179 33c11 13 13 30 13 46z" />
    <glyph glyph-name="acircumflex" unicode="&#xe2;" 
d="M522 577l-28 -52l-169 83l-170 -83l-27 52l197 118zM603 0h-73l2 52h-4c-9 -13 -17 -22 -30 -31c-45 -33 -128 -29 -181 -29c-57 0 -158 -3 -212 16c-17 6 -31 15 -44 28c-27 28 -28 67 -28 104c0 39 6 76 37 102c43 36 145 32 197 32c44 0 89 -2 133 -3
c49 -1 93 -6 124 -47h6v49c0 32 -1 61 -22 87c-37 46 -137 41 -189 41c-38 0 -149 6 -176 -29c-12 -15 -13 -33 -13 -51h-76c-1 7 -1 13 -1 20c0 28 6 51 23 73c44 56 175 52 238 52c73 0 195 6 251 -52c13 -13 21 -27 27 -45c12 -36 11 -75 11 -113v-256zM525 134
c0 15 -3 31 -14 42c-33 37 -149 34 -194 34c-39 0 -124 3 -161 -8s-47 -37 -47 -73c0 -34 13 -57 47 -65c45 -11 128 -9 177 -9c42 0 149 -3 179 33c11 13 13 30 13 46z" />
    <glyph glyph-name="adieresis" unicode="&#xe4;" 
d="M504 570h-128v80h128v-80zM272 570h-127v80h127v-80zM603 0h-73l2 52h-4c-9 -13 -17 -22 -30 -31c-45 -33 -128 -29 -181 -29c-57 0 -158 -3 -212 16c-17 6 -31 15 -44 28c-27 28 -28 67 -28 104c0 39 6 76 37 102c43 36 145 32 197 32c44 0 89 -2 133 -3
c49 -1 93 -6 124 -47h6v49c0 32 -1 61 -22 87c-37 46 -137 41 -189 41c-38 0 -149 6 -176 -29c-12 -15 -13 -33 -13 -51h-76c-1 7 -1 13 -1 20c0 28 6 51 23 73c44 56 175 52 238 52c73 0 195 6 251 -52c13 -13 21 -27 27 -45c12 -36 11 -75 11 -113v-256zM525 134
c0 15 -3 31 -14 42c-33 37 -149 34 -194 34c-39 0 -124 3 -161 -8s-47 -37 -47 -73c0 -34 13 -57 47 -65c45 -11 128 -9 177 -9c42 0 149 -3 179 33c11 13 13 30 13 46z" />
    <glyph glyph-name="atilde" unicode="&#xe3;" 
d="M508 631c0 -54 -31 -91 -87 -91c-73 0 -145 65 -196 65c-27 0 -31 -22 -33 -44h-51c2 55 6 119 77 119c76 0 150 -65 201 -65c34 0 36 28 37 56h51c0 -6 1 -11 1 -17v-23zM603 0h-73l2 52h-4c-9 -13 -17 -22 -30 -31c-45 -33 -128 -29 -181 -29c-57 0 -158 -3 -212 16
c-17 6 -31 15 -44 28c-27 28 -28 67 -28 104c0 39 6 76 37 102c43 36 145 32 197 32c44 0 89 -2 133 -3c49 -1 93 -6 124 -47h6v49c0 32 -1 61 -22 87c-37 46 -137 41 -189 41c-38 0 -149 6 -176 -29c-12 -15 -13 -33 -13 -51h-76c-1 7 -1 13 -1 20c0 28 6 51 23 73
c44 56 175 52 238 52c73 0 195 6 251 -52c13 -13 21 -27 27 -45c12 -36 11 -75 11 -113v-256zM525 134c0 15 -3 31 -14 42c-33 37 -149 34 -194 34c-39 0 -124 3 -161 -8s-47 -37 -47 -73c0 -34 13 -57 47 -65c45 -11 128 -9 177 -9c42 0 149 -3 179 33c11 13 13 30 13 46z
" />
    <glyph glyph-name="aring" unicode="&#xe5;" 
d="M475 635c0 -113 -37 -122 -143 -122c-110 0 -151 4 -151 121c0 107 44 111 141 111c43 0 123 4 144 -43c8 -20 9 -46 9 -67zM603 0h-73l2 52h-4c-9 -13 -17 -22 -30 -31c-45 -33 -128 -29 -181 -29c-57 0 -158 -3 -212 16c-17 6 -31 15 -44 28c-27 28 -28 67 -28 104
c0 39 6 76 37 102c43 36 145 32 197 32c44 0 89 -2 133 -3c49 -1 93 -6 124 -47h6v49c0 32 -1 61 -22 87c-37 46 -137 41 -189 41c-38 0 -149 6 -176 -29c-12 -15 -13 -33 -13 -51h-76c-1 7 -1 13 -1 20c0 28 6 51 23 73c44 56 175 52 238 52c73 0 195 6 251 -52
c13 -13 21 -27 27 -45c12 -36 11 -75 11 -113v-256zM403 626c0 56 -29 61 -79 61c-45 0 -71 -8 -71 -58c0 -56 32 -58 80 -58c41 0 70 9 70 55zM525 134c0 15 -3 31 -14 42c-33 37 -149 34 -194 34c-39 0 -124 3 -161 -8s-47 -37 -47 -73c0 -34 13 -57 47 -65
c45 -11 128 -9 177 -9c42 0 149 -3 179 33c11 13 13 30 13 46z" />
    <glyph glyph-name="ccedilla" unicode="&#xe7;" horiz-adv-x="651" 
d="M617 168c-1 -45 -5 -89 -38 -123c-58 -59 -173 -50 -249 -50v-14c0 -2 -1 -25 3 -29c8 -7 51 -5 63 -5c27 0 30 -10 30 -35v-59c0 -35 -10 -47 -45 -47h-100v41h66c21 0 28 -2 31 20c0 3 1 8 1 11c0 4 -1 7 -1 11c-2 19 -14 17 -31 17h-49c-16 0 -15 7 -15 21v69
c-46 5 -95 5 -139 19c-93 30 -107 132 -107 217c0 218 100 237 290 237c70 0 195 3 248 -52c31 -32 38 -76 40 -119h-77c-2 74 -35 93 -104 101c-36 5 -72 5 -108 5c-157 0 -211 -8 -211 -183c0 -43 4 -95 37 -127c39 -38 154 -35 204 -35c32 0 65 0 97 5
c68 10 87 37 90 104h74z" />
    <glyph glyph-name="eacute" unicode="&#xe9;" horiz-adv-x="665" 
d="M457 645l-126 -132l-50 42l104 152zM631 215h-516c1 -40 5 -87 34 -118c40 -43 165 -38 218 -38c46 0 136 -3 170 34c14 16 15 29 17 50h76c-1 -91 -48 -126 -133 -141c-41 -7 -82 -8 -123 -8c-64 0 -159 1 -221 18c-101 28 -116 130 -116 221c0 219 99 236 290 236
c31 0 62 0 94 -2c62 -4 119 -11 163 -60c47 -52 46 -126 47 -192zM550 278c0 101 -60 119 -147 124c-26 2 -52 2 -78 2c-35 0 -70 -1 -104 -6c-76 -12 -98 -46 -103 -120h432z" />
    <glyph glyph-name="egrave" unicode="&#xe8;" horiz-adv-x="665" 
d="M408 552l-50 -39l-121 137l75 57zM631 215h-516c1 -40 5 -87 34 -118c40 -43 165 -38 218 -38c46 0 136 -3 170 34c14 16 15 29 17 50h76c-1 -91 -48 -126 -133 -141c-41 -7 -82 -8 -123 -8c-64 0 -159 1 -221 18c-101 28 -116 130 -116 221c0 219 99 236 290 236
c31 0 62 0 94 -2c62 -4 119 -11 163 -60c47 -52 46 -126 47 -192zM550 278c0 101 -60 119 -147 124c-26 2 -52 2 -78 2c-35 0 -70 -1 -104 -6c-76 -12 -98 -46 -103 -120h432z" />
    <glyph glyph-name="ecircumflex" unicode="&#xea;" horiz-adv-x="665" 
d="M543 577l-28 -52l-169 83l-170 -83l-27 52l197 118zM631 215h-516c1 -40 5 -87 34 -118c40 -43 165 -38 218 -38c46 0 136 -3 170 34c14 16 15 29 17 50h76c-1 -91 -48 -126 -133 -141c-41 -7 -82 -8 -123 -8c-64 0 -159 1 -221 18c-101 28 -116 130 -116 221
c0 219 99 236 290 236c31 0 62 0 94 -2c62 -4 119 -11 163 -60c47 -52 46 -126 47 -192zM550 278c0 101 -60 119 -147 124c-26 2 -52 2 -78 2c-35 0 -70 -1 -104 -6c-76 -12 -98 -46 -103 -120h432z" />
    <glyph glyph-name="edieresis" unicode="&#xeb;" horiz-adv-x="665" 
d="M529 570h-129v80h129v-80zM297 570h-128v80h128v-80zM631 215h-516c1 -40 5 -87 34 -118c40 -43 165 -38 218 -38c46 0 136 -3 170 34c14 16 15 29 17 50h76c-1 -91 -48 -126 -133 -141c-41 -7 -82 -8 -123 -8c-64 0 -159 1 -221 18c-101 28 -116 130 -116 221
c0 219 99 236 290 236c31 0 62 0 94 -2c62 -4 119 -11 163 -60c47 -52 46 -126 47 -192zM550 278c0 101 -60 119 -147 124c-26 2 -52 2 -78 2c-35 0 -70 -1 -104 -6c-76 -12 -98 -46 -103 -120h432z" />
    <glyph glyph-name="iacute" unicode="&#xed;" horiz-adv-x="193" 
d="M221 645l-126 -132l-50 42l104 152zM133 0h-73v463h73v-463z" />
    <glyph glyph-name="igrave" unicode="&#xec;" horiz-adv-x="193" 
d="M149 552l-50 -39l-122 137l76 57zM133 0h-73v463h73v-463z" />
    <glyph glyph-name="icircumflex" unicode="&#xee;" horiz-adv-x="193" 
d="M207 577l-36 -52l-74 83l-75 -83l-36 52l111 118zM133 0h-73v463h73v-463z" />
    <glyph glyph-name="idieresis" unicode="&#xef;" horiz-adv-x="193" 
d="M192 570h-80v80h80v-80zM80 570h-79v80h79v-80zM133 0h-73v463h73v-463z" />
    <glyph glyph-name="ntilde" unicode="&#xf1;" horiz-adv-x="684" 
d="M545 631c0 -54 -31 -91 -87 -91c-73 0 -145 65 -195 65c-27 0 -32 -21 -34 -44h-50c0 55 5 119 76 119c77 0 149 -65 202 -65c35 0 36 28 36 56h51c0 -6 1 -11 1 -17v-23zM631 0h-72v230c0 43 3 99 -26 135c-34 41 -124 39 -172 39c-73 0 -194 0 -222 -85
c-11 -33 -9 -69 -9 -104v-215h-73v463h73v-70h5c29 56 79 68 138 73c32 3 64 4 96 4c68 0 173 3 224 -52c38 -40 38 -104 38 -156v-262z" />
    <glyph glyph-name="oacute" unicode="&#xf3;" horiz-adv-x="683" 
d="M453 645l-127 -132l-49 42l103 152zM646 229c0 -220 -102 -235 -292 -235c-192 0 -317 2 -317 235c0 216 93 240 284 240c201 0 325 3 325 -240zM568 239c0 42 -3 89 -30 123c-38 48 -150 42 -204 42c-151 0 -219 -2 -219 -177c0 -44 3 -102 38 -134
c40 -38 143 -34 194 -34c49 0 101 -2 148 13c72 23 73 103 73 167z" />
    <glyph glyph-name="ograve" unicode="&#xf2;" horiz-adv-x="683" 
d="M407 552l-50 -39l-121 137l75 57zM646 229c0 -220 -102 -235 -292 -235c-192 0 -317 2 -317 235c0 216 93 240 284 240c201 0 325 3 325 -240zM568 239c0 42 -3 89 -30 123c-38 48 -150 42 -204 42c-151 0 -219 -2 -219 -177c0 -44 3 -102 38 -134
c40 -38 143 -34 194 -34c49 0 101 -2 148 13c72 23 73 103 73 167z" />
    <glyph glyph-name="ocircumflex" unicode="&#xf4;" horiz-adv-x="683" 
d="M539 577l-28 -52l-170 83l-169 -83l-28 52l197 118zM646 229c0 -220 -102 -235 -292 -235c-192 0 -317 2 -317 235c0 216 93 240 284 240c201 0 325 3 325 -240zM568 239c0 42 -3 89 -30 123c-38 48 -150 42 -204 42c-151 0 -219 -2 -219 -177c0 -44 3 -102 38 -134
c40 -38 143 -34 194 -34c49 0 101 -2 148 13c72 23 73 103 73 167z" />
    <glyph glyph-name="odieresis" unicode="&#xf6;" horiz-adv-x="683" 
d="M521 570h-129v80h129v-80zM289 570h-127v80h127v-80zM646 229c0 -220 -102 -235 -292 -235c-192 0 -317 2 -317 235c0 216 93 240 284 240c201 0 325 3 325 -240zM568 239c0 42 -3 89 -30 123c-38 48 -150 42 -204 42c-151 0 -219 -2 -219 -177c0 -44 3 -102 38 -134
c40 -38 143 -34 194 -34c49 0 101 -2 148 13c72 23 73 103 73 167z" />
    <glyph glyph-name="otilde" unicode="&#xf5;" horiz-adv-x="683" 
d="M525 631c0 -54 -33 -91 -88 -91c-72 0 -144 65 -195 65c-27 0 -32 -21 -33 -44h-51c0 55 5 119 76 119c78 0 149 -65 202 -65c34 0 36 28 37 56h50c2 -13 2 -27 2 -40zM646 229c0 -220 -102 -235 -292 -235c-192 0 -317 2 -317 235c0 216 93 240 284 240
c201 0 325 3 325 -240zM568 239c0 42 -3 89 -30 123c-38 48 -150 42 -204 42c-151 0 -219 -2 -219 -177c0 -44 3 -102 38 -134c40 -38 143 -34 194 -34c49 0 101 -2 148 13c72 23 73 103 73 167z" />
    <glyph glyph-name="uacute" unicode="&#xfa;" horiz-adv-x="670" 
d="M447 645l-127 -132l-50 42l104 152zM614 0h-73v70h-5c-9 -16 -17 -26 -31 -38c-47 -39 -140 -38 -198 -38c-63 0 -158 1 -209 44c-45 38 -45 115 -45 169v256h73v-234c0 -14 0 -29 1 -43c1 -35 5 -70 33 -95c36 -32 110 -32 155 -32c74 0 200 3 220 96c5 25 6 53 6 79
v229h73v-463z" />
    <glyph glyph-name="ugrave" unicode="&#xf9;" horiz-adv-x="670" 
d="M401 552l-50 -39l-122 137l76 57zM614 0h-73v70h-5c-9 -16 -17 -26 -31 -38c-47 -39 -140 -38 -198 -38c-63 0 -158 1 -209 44c-45 38 -45 115 -45 169v256h73v-234c0 -14 0 -29 1 -43c1 -35 5 -70 33 -95c36 -32 110 -32 155 -32c74 0 200 3 220 96c5 25 6 53 6 79v229
h73v-463z" />
    <glyph glyph-name="ucircumflex" unicode="&#xfb;" horiz-adv-x="670" 
d="M532 577l-27 -52l-170 83l-169 -83l-28 52l197 118zM614 0h-73v70h-5c-9 -16 -17 -26 -31 -38c-47 -39 -140 -38 -198 -38c-63 0 -158 1 -209 44c-45 38 -45 115 -45 169v256h73v-234c0 -14 0 -29 1 -43c1 -35 5 -70 33 -95c36 -32 110 -32 155 -32c74 0 200 3 220 96
c5 25 6 53 6 79v229h73v-463z" />
    <glyph glyph-name="udieresis" unicode="&#xfc;" horiz-adv-x="670" 
d="M515 570h-129v80h129v-80zM283 570h-127v80h127v-80zM614 0h-73v70h-5c-9 -16 -17 -26 -31 -38c-47 -39 -140 -38 -198 -38c-63 0 -158 1 -209 44c-45 38 -45 115 -45 169v256h73v-234c0 -14 0 -29 1 -43c1 -35 5 -70 33 -95c36 -32 110 -32 155 -32c74 0 200 3 220 96
c5 25 6 53 6 79v229h73v-463z" />
    <glyph glyph-name="nbspace" unicode="&#xa0;" horiz-adv-x="250" 
 />
    <glyph glyph-name="Agrave" unicode="&#xc0;" horiz-adv-x="890" 
d="M510 762l-39 -52l-158 103l60 77zM894 0h-99l-79 141h-539l-80 -141h-100l377 667h143zM673 216l-207 371h-36l-210 -371h453z" />
    <glyph glyph-name="Atilde" unicode="&#xc3;" horiz-adv-x="890" 
d="M634 820c0 -56 -40 -83 -93 -83c-39 0 -73 16 -109 29c-20 8 -66 26 -88 26c-26 0 -33 -14 -35 -38h-52c0 56 8 109 78 109c41 0 80 -14 118 -29c25 -9 62 -26 89 -26c33 0 38 20 38 49h52c1 -12 2 -25 2 -37zM894 0h-99l-79 141h-539l-80 -141h-100l377 667h143z
M673 216l-207 371h-36l-210 -371h453z" />
    <glyph glyph-name="Otilde" unicode="&#xd5;" horiz-adv-x="921" 
d="M649 820c0 -56 -39 -83 -92 -83c-39 0 -74 15 -110 29c-20 8 -67 26 -88 26c-26 0 -33 -14 -35 -38h-52c0 56 10 109 78 109c79 0 151 -55 208 -55c33 0 37 20 38 49h52c0 -12 1 -25 1 -37zM878 331c0 -37 -2 -75 -4 -112c-6 -94 -13 -178 -119 -204
c-80 -19 -206 -16 -289 -16c-53 0 -106 2 -159 3c-73 1 -158 0 -214 55c-44 43 -46 123 -48 180c-2 32 -2 64 -2 96c0 36 0 73 3 109c3 61 10 141 62 181c24 19 48 26 78 31c35 6 71 8 107 9c62 4 124 5 186 5c55 0 111 -1 166 -4c89 -4 186 -12 214 -113
c18 -66 19 -152 19 -220zM790 337l-3 108c-2 71 -4 120 -83 133c-85 14 -190 10 -278 10c-39 0 -77 0 -116 -2c-36 -2 -116 -6 -144 -31c-37 -33 -35 -170 -35 -215c0 -48 -3 -196 28 -228c15 -15 34 -21 54 -25c28 -5 59 -6 87 -7c57 -3 113 -4 169 -4c48 0 95 1 143 3
c37 1 114 3 143 30c14 13 20 29 24 48c10 50 12 128 11 180z" />
    <glyph glyph-name="ydieresis" unicode="&#xff;" horiz-adv-x="606" 
d="M483 570h-129v80h129v-80zM251 570h-128v80h128v-80zM609 463l-225 -431c-28 -54 -64 -127 -115 -162c-44 -30 -94 -31 -145 -31h-41v67c11 -1 22 -1 33 -1c94 0 122 12 166 96h-24l-261 462h86l223 -404h10l207 404h86z" />
    <glyph glyph-name="Ydieresis" unicode="&#x178;" horiz-adv-x="871" 
d="M609 760h-130v80h130v-80zM390 760h-128v80h128v-80zM874 667l-391 -394v-273h-89v273l-397 394h120l322 -320l311 320h124z" />
    <glyph glyph-name="Acircumflex" unicode="&#xc2;" horiz-adv-x="890" 
d="M646 776l-25 -52l-176 70l-176 -70l-24 52l200 100zM894 0h-99l-79 141h-539l-80 -141h-100l377 667h143zM673 216l-207 371h-36l-210 -371h453z" />
    <glyph glyph-name="Ecircumflex" unicode="&#xca;" horiz-adv-x="744" 
d="M599 776l-24 -52l-176 70l-176 -70l-25 52l201 100zM717 0h-654v667h653v-82h-563v-200h540v-78h-540v-227h564v-80z" />
    <glyph glyph-name="Aacute" unicode="&#xc1;" horiz-adv-x="890" 
d="M578 808l-161 -97l-38 54l144 124zM894 0h-99l-79 141h-539l-80 -141h-100l377 667h143zM673 216l-207 371h-36l-210 -371h453z" />
    <glyph glyph-name="Edieresis" unicode="&#xcb;" horiz-adv-x="744" 
d="M578 760h-129v80h129v-80zM360 760h-128v80h128v-80zM717 0h-654v667h653v-82h-563v-200h540v-78h-540v-227h564v-80z" />
    <glyph glyph-name="Egrave" unicode="&#xc8;" horiz-adv-x="744" 
d="M464 762l-40 -52l-157 103l59 77zM717 0h-654v667h653v-82h-563v-200h540v-78h-540v-227h564v-80z" />
    <glyph glyph-name="Iacute" unicode="&#xcd;" horiz-adv-x="215" 
d="M247 808l-161 -97l-38 54l144 124zM151 0h-88v667h88v-667z" />
    <glyph glyph-name="Icircumflex" unicode="&#xce;" horiz-adv-x="215" 
d="M236 776l-29 -52l-100 70l-99 -70l-29 52l128 100zM151 0h-88v667h88v-667z" />
    <glyph glyph-name="Idieresis" unicode="&#xcf;" horiz-adv-x="215" 
d="M225 760h-104v80h104v-80zM93 760h-103v80h103v-80zM151 0h-88v667h88v-667z" />
    <glyph glyph-name="Igrave" unicode="&#xcc;" horiz-adv-x="215" 
d="M166 762l-40 -52l-157 103l59 77zM151 0h-88v667h88v-667z" />
    <glyph glyph-name="Oacute" unicode="&#xd3;" horiz-adv-x="921" 
d="M594 808l-161 -97l-39 54l144 124zM878 331c0 -37 -2 -75 -4 -112c-6 -94 -13 -178 -119 -204c-80 -19 -206 -16 -289 -16c-53 0 -106 2 -159 3c-73 1 -158 0 -214 55c-44 43 -46 123 -48 180c-2 32 -2 64 -2 96c0 36 0 73 3 109c3 61 10 141 62 181c24 19 48 26 78 31
c35 6 71 8 107 9c62 4 124 5 186 5c55 0 111 -1 166 -4c89 -4 186 -12 214 -113c18 -66 19 -152 19 -220zM790 337l-3 108c-2 71 -4 120 -83 133c-85 14 -190 10 -278 10c-39 0 -77 0 -116 -2c-36 -2 -116 -6 -144 -31c-37 -33 -35 -170 -35 -215c0 -48 -3 -196 28 -228
c15 -15 34 -21 54 -25c28 -5 59 -6 87 -7c57 -3 113 -4 169 -4c48 0 95 1 143 3c37 1 114 3 143 30c14 13 20 29 24 48c10 50 12 128 11 180z" />
    <glyph glyph-name="Ocircumflex" unicode="&#xd4;" horiz-adv-x="921" 
d="M661 776l-24 -52l-176 70l-176 -70l-25 52l201 100zM878 331c0 -37 -2 -75 -4 -112c-6 -94 -13 -178 -119 -204c-80 -19 -206 -16 -289 -16c-53 0 -106 2 -159 3c-73 1 -158 0 -214 55c-44 43 -46 123 -48 180c-2 32 -2 64 -2 96c0 36 0 73 3 109c3 61 10 141 62 181
c24 19 48 26 78 31c35 6 71 8 107 9c62 4 124 5 186 5c55 0 111 -1 166 -4c89 -4 186 -12 214 -113c18 -66 19 -152 19 -220zM790 337l-3 108c-2 71 -4 120 -83 133c-85 14 -190 10 -278 10c-39 0 -77 0 -116 -2c-36 -2 -116 -6 -144 -31c-37 -33 -35 -170 -35 -215
c0 -48 -3 -196 28 -228c15 -15 34 -21 54 -25c28 -5 59 -6 87 -7c57 -3 113 -4 169 -4c48 0 95 1 143 3c37 1 114 3 143 30c14 13 20 29 24 48c10 50 12 128 11 180z" />
    <glyph glyph-name="apple" unicode="&#xf8ff;" horiz-adv-x="928" 
d="M892 228c-3 -57 1 -138 -42 -182c-42 -42 -135 -43 -189 -45c-40 -2 -80 -2 -119 -2c-51 0 -101 0 -151 2c-67 2 -174 1 -226 51c-39 37 -46 115 -49 165h-106v82h103c-1 22 0 45 0 68h-103v82h107c4 58 9 134 59 174c22 18 49 27 77 31c85 13 188 14 275 14
c75 0 174 0 248 -18c27 -7 51 -19 72 -39c38 -37 33 -116 35 -165h-83c0 33 4 80 -20 106c-38 40 -207 37 -257 37c-60 0 -243 3 -284 -31c-29 -23 -32 -75 -35 -109h403v-82h-406v-5c0 -21 1 -42 2 -63h404v-82h-401c1 -32 3 -90 30 -113c16 -14 40 -18 61 -21
c67 -8 143 -8 211 -8c51 0 102 2 153 4c36 1 94 2 123 29c25 24 21 87 21 120h87z" />
    <glyph glyph-name="Ograve" unicode="&#xd2;" horiz-adv-x="921" 
d="M526 762l-40 -52l-157 103l59 77zM878 331c0 -37 -2 -75 -4 -112c-6 -94 -13 -178 -119 -204c-80 -19 -206 -16 -289 -16c-53 0 -106 2 -159 3c-73 1 -158 0 -214 55c-44 43 -46 123 -48 180c-2 32 -2 64 -2 96c0 36 0 73 3 109c3 61 10 141 62 181c24 19 48 26 78 31
c35 6 71 8 107 9c62 4 124 5 186 5c55 0 111 -1 166 -4c89 -4 186 -12 214 -113c18 -66 19 -152 19 -220zM790 337l-3 108c-2 71 -4 120 -83 133c-85 14 -190 10 -278 10c-39 0 -77 0 -116 -2c-36 -2 -116 -6 -144 -31c-37 -33 -35 -170 -35 -215c0 -48 -3 -196 28 -228
c15 -15 34 -21 54 -25c28 -5 59 -6 87 -7c57 -3 113 -4 169 -4c48 0 95 1 143 3c37 1 114 3 143 30c14 13 20 29 24 48c10 50 12 128 11 180z" />
    <glyph glyph-name="Uacute" unicode="&#xda;" horiz-adv-x="901" 
d="M583 808l-161 -97l-38 54l144 124zM844 340c0 -26 -1 -52 -1 -78c-1 -63 4 -149 -36 -201c-45 -58 -147 -58 -213 -59c-47 -1 -95 -3 -142 -3c-48 0 -97 1 -145 2c-68 1 -155 0 -205 53c-51 54 -45 141 -45 210v403h87v-403c0 -33 -2 -104 10 -134c4 -9 9 -17 16 -23
c35 -34 215 -29 261 -29c71 0 179 -3 248 10c21 4 42 10 58 26c23 24 20 121 20 151c2 134 1 268 1 402h86v-327z" />
    <glyph glyph-name="Ucircumflex" unicode="&#xdb;" horiz-adv-x="901" 
d="M651 776l-25 -52l-176 70l-176 -70l-24 52l200 100zM844 340c0 -26 -1 -52 -1 -78c-1 -63 4 -149 -36 -201c-45 -58 -147 -58 -213 -59c-47 -1 -95 -3 -142 -3c-48 0 -97 1 -145 2c-68 1 -155 0 -205 53c-51 54 -45 141 -45 210v403h87v-403c0 -33 -2 -104 10 -134
c4 -9 9 -17 16 -23c35 -34 215 -29 261 -29c71 0 179 -3 248 10c21 4 42 10 58 26c23 24 20 121 20 151c2 134 1 268 1 402h86v-327z" />
    <glyph glyph-name="Ugrave" unicode="&#xd9;" horiz-adv-x="901" 
d="M515 762l-39 -52l-158 103l60 77zM844 340c0 -26 -1 -52 -1 -78c-1 -63 4 -149 -36 -201c-45 -58 -147 -58 -213 -59c-47 -1 -95 -3 -142 -3c-48 0 -97 1 -145 2c-68 1 -155 0 -205 53c-51 54 -45 141 -45 210v403h87v-403c0 -33 -2 -104 10 -134c4 -9 9 -17 16 -23
c35 -34 215 -29 261 -29c71 0 179 -3 248 10c21 4 42 10 58 26c23 24 20 121 20 151c2 134 1 268 1 402h86v-327z" />
  </font>
</defs>
</svg>
